<svg width="58" height="58" viewBox="0 0 58 58" fill="none" xmlns="http://www.w3.org/2000/svg">
<path d="M32.625 9.66667C31.6636 9.66667 30.7416 10.0486 30.0617 10.7284C29.3819 11.4082 29 12.3303 29 13.2917C29 14.2531 29.3819 15.1751 30.0617 15.8549C30.7416 16.5348 31.6636 16.9167 32.625 16.9167C33.5864 16.9167 34.5084 16.5348 35.1883 15.8549C35.8681 15.1751 36.25 14.2531 36.25 13.2917C36.25 12.3303 35.8681 11.4082 35.1883 10.7284C34.5084 10.0486 33.5864 9.66667 32.625 9.66667ZM31.755 21.1942C28.8792 21.4358 21.025 27.695 21.025 27.695C20.5417 28.0575 20.6867 28.0333 21.0733 28.71C21.46 29.3625 21.4117 29.4108 21.8708 29.0967C22.3542 28.7825 23.1517 28.275 24.4808 27.4533C29.6042 24.1667 25.3025 31.755 23.1033 44.5392C22.2333 50.8708 27.9367 47.6083 29.4108 46.6417C30.8608 45.6992 34.7517 43.0167 35.1383 42.7508C35.67 42.3883 35.2833 42.0983 34.8725 41.4942C34.5825 41.0833 34.2925 41.3733 34.2925 41.3733C32.7217 42.4125 29.8458 44.5875 29.4592 43.21C29 41.8325 31.9483 32.3833 33.5675 25.8825C33.8333 24.3358 34.5583 20.9525 31.755 21.1942Z" fill="white"/>
<rect x="0.5" y="0.5" width="57" height="57" rx="14.5" stroke="white"/>
</svg>
