<svg xmlns="http://www.w3.org/2000/svg" xmlns:xlink="http://www.w3.org/1999/xlink" width="500" zoomAndPan="magnify" viewBox="0 0 375 374.999991" height="500" preserveAspectRatio="xMidYMid meet" version="1.0"><defs><g/><clipPath id="e2f68a9216"><path d="M 133.386719 91 L 240 91 L 240 183 L 133.386719 183 Z M 133.386719 91 " clip-rule="nonzero"/></clipPath><clipPath id="f842b22d51"><path d="M 121.011719 228.25 L 157.011719 228.25 L 157.011719 268 L 121.011719 268 Z M 121.011719 228.25 " clip-rule="nonzero"/></clipPath></defs><path fill="#ffffff" d="M 193.90625 163.945312 C 196.386719 182.332031 212.691406 187.351562 212.691406 187.351562 C 210.105469 199.285156 220.648438 206.585938 224.953125 207.609375 C 229.253906 208.632812 236.800781 201.679688 236.800781 201.679688 C 236.800781 201.679688 234.257812 205.71875 235.558594 215.609375 C 236.859375 225.5 220.703125 228.5 203.378906 219.128906 C 186.050781 209.757812 176.878906 196.625 176.878906 196.625 C 186.925781 184.875 187.019531 162.308594 187.019531 162.308594 L 193.90625 163.945312 " fill-opacity="1" fill-rule="nonzero"/><g clip-path="url(#e2f68a9216)"><path fill="#ffffff" d="M 143.964844 135.867188 C 144.566406 133.597656 145.347656 131.355469 146.441406 129.261719 C 147.457031 127.125 148.800781 125.164062 150.207031 123.265625 C 151.675781 121.40625 153.300781 119.671875 155.113281 118.148438 C 156.910156 116.621094 158.898438 115.285156 161.070312 114.386719 C 159.261719 115.871094 157.640625 117.507812 156.054688 119.15625 C 154.492188 120.832031 152.992188 122.546875 151.601562 124.355469 C 150.21875 126.171875 148.867188 128.011719 147.636719 129.953125 C 146.375 131.875 145.203125 133.863281 143.964844 135.867188 Z M 162.449219 108.550781 C 165.515625 105.53125 169.296875 103.285156 173.296875 101.695312 C 175.308594 100.917969 177.386719 100.3125 179.503906 99.925781 C 181.617188 99.535156 183.785156 99.320312 185.929688 99.539062 C 183.847656 100.054688 181.832031 100.632812 179.835938 101.261719 C 177.847656 101.914062 175.867188 102.566406 173.9375 103.351562 C 172 104.113281 170.074219 104.917969 168.179688 105.8125 Z M 174.816406 115.832031 C 176.429688 114.863281 178.089844 113.957031 179.789062 113.113281 C 181.539062 112.414062 183.265625 111.585938 185.089844 111.054688 C 188.703125 109.855469 192.480469 109.164062 196.304688 108.867188 C 200.125 108.6875 203.992188 108.910156 207.726562 109.808594 C 211.433594 110.703125 215.09375 112.121094 218.070312 114.488281 C 214.570312 113.097656 210.964844 112.332031 207.351562 111.847656 C 203.734375 111.402344 200.09375 111.308594 196.464844 111.523438 C 194.652344 111.675781 192.832031 111.789062 191.035156 112.113281 C 189.210938 112.289062 187.433594 112.742188 185.625 113.0625 C 183.816406 113.402344 182.050781 113.945312 180.230469 114.34375 C 178.441406 114.832031 176.667969 115.402344 174.816406 115.832031 Z M 208.503906 104.925781 L 206.523438 104.671875 C 205.867188 104.566406 205.203125 104.507812 204.53125 104.542969 L 200.515625 104.546875 C 199.839844 104.507812 199.171875 104.550781 198.5 104.644531 L 196.488281 104.859375 C 195.15625 105.027344 193.800781 105.097656 192.460938 105.292969 C 189.808594 105.867188 187.109375 106.265625 184.445312 106.882812 C 181.792969 107.554688 179.160156 108.3125 176.449219 108.917969 C 178.945312 107.75 181.519531 106.734375 184.074219 105.632812 C 186.6875 104.703125 189.390625 104.015625 192.074219 103.25 C 193.433594 102.933594 194.828125 102.765625 196.210938 102.542969 L 198.289062 102.226562 C 198.980469 102.097656 199.679688 102.023438 200.386719 102.027344 L 204.621094 101.941406 C 205.324219 101.898438 206.03125 101.949219 206.734375 102.046875 L 208.851562 102.285156 C 214.457031 103.015625 220.054688 105.039062 224.496094 108.664062 C 225.597656 109.578125 226.703125 110.46875 227.613281 111.578125 C 228.609375 112.589844 229.433594 113.75 230.246094 114.902344 C 231.734375 117.292969 233.046875 119.8125 233.667969 122.53125 C 231.324219 117.507812 227.605469 113.363281 223.265625 110.328125 C 218.898438 107.289062 213.761719 105.570312 208.503906 104.925781 Z M 139.667969 142.523438 C 139.667969 142.523438 137.886719 151.988281 145.738281 162.371094 C 153.585938 172.757812 154.84375 182.179688 154.84375 182.179688 C 154.84375 182.179688 157.539062 174.609375 162.304688 169.8125 C 162.304688 169.8125 158.886719 159.265625 160.589844 152.0625 C 162.285156 144.867188 174.535156 141.085938 174.535156 141.085938 L 172.917969 146.027344 C 187.621094 132.488281 209.1875 139.292969 209.1875 139.292969 C 202.5625 129.503906 211.640625 120.5625 219.335938 121.328125 C 227.03125 122.09375 237.773438 132.40625 237.773438 132.40625 C 237.773438 132.40625 249.632812 103.972656 212.519531 94.6875 C 175.410156 85.402344 142.46875 96.953125 133.964844 142.613281 L 138.574219 138.15625 L 133.386719 149.242188 L 139.667969 142.523438 " fill-opacity="1" fill-rule="nonzero"/></g><path fill="#ffffff" d="M 162.253906 154.429688 C 162.714844 152.382812 163.664062 150.191406 165.582031 148.867188 C 167.515625 147.542969 169.789062 147.398438 171.832031 147.691406 C 173.898438 148.035156 175.769531 148.917969 177.472656 149.964844 C 179.183594 151.011719 180.71875 152.3125 182.054688 153.769531 C 178.980469 151.363281 175.421875 149.304688 171.671875 149.039062 C 169.847656 148.921875 167.925781 149.265625 166.667969 150.3125 C 165.371094 151.355469 164.652344 153.070312 164.363281 154.855469 C 163.796875 158.46875 164.480469 162.355469 165.824219 165.8125 C 166.167969 166.675781 166.574219 167.507812 167 168.328125 C 167.46875 169.097656 167.945312 169.886719 168.535156 170.660156 C 169.664062 172.199219 170.894531 173.675781 172.214844 175.035156 C 173.527344 176.394531 174.933594 177.679688 176.445312 178.617188 C 177.191406 179.082031 177.980469 179.429688 178.667969 179.550781 C 179.367188 179.632812 179.773438 179.535156 180.167969 179.109375 C 180.59375 178.703125 180.871094 177.878906 181.09375 177.035156 C 181.269531 176.210938 181.375 175.375 181.207031 174.617188 C 180.957031 173.097656 179.808594 171.820312 178.230469 171.1875 C 177.453125 170.863281 176.59375 170.683594 175.773438 170.699219 C 175.5625 170.6875 175.375 170.726562 175.175781 170.75 L 174.765625 170.796875 C 174.597656 170.8125 174.421875 170.847656 174.253906 170.828125 C 173.5625 170.820312 172.960938 170.574219 172.425781 170.296875 C 170.414062 169.027344 169.367188 167.164062 168.503906 165.3125 C 167.710938 163.421875 167.167969 161.417969 167.195312 159.34375 C 167.246094 158.335938 167.414062 157.1875 168.234375 156.425781 C 169.078125 155.660156 170.253906 155.792969 171.152344 156.085938 C 170.207031 155.914062 169.101562 156 168.53125 156.722656 C 167.941406 157.402344 167.871094 158.410156 167.929688 159.332031 C 168.101562 161.21875 168.808594 163.058594 169.71875 164.710938 C 170.617188 166.34375 171.832031 167.960938 173.265625 168.683594 C 173.617188 168.824219 173.960938 168.921875 174.261719 168.90625 C 174.335938 168.914062 174.40625 168.878906 174.480469 168.871094 L 174.589844 168.859375 L 174.804688 168.820312 C 175.089844 168.765625 175.382812 168.699219 175.667969 168.695312 C 176.8125 168.613281 177.929688 168.785156 178.996094 169.15625 C 180.054688 169.53125 181.078125 170.113281 181.910156 170.972656 C 182.742188 171.828125 183.328125 172.953125 183.582031 174.125 C 183.867188 175.304688 183.761719 176.480469 183.554688 177.582031 C 183.300781 178.636719 183.046875 179.796875 182.121094 180.867188 C 181.683594 181.398438 181.03125 181.855469 180.324219 182.0625 C 179.617188 182.285156 178.902344 182.300781 178.269531 182.207031 C 177.011719 181.996094 175.980469 181.496094 175.050781 180.945312 C 173.199219 179.816406 171.664062 178.429688 170.226562 176.964844 C 168.816406 175.484375 167.53125 173.90625 166.34375 172.253906 C 165.746094 171.445312 165.203125 170.546875 164.660156 169.621094 C 164.183594 168.683594 163.726562 167.734375 163.382812 166.75 C 162.679688 164.789062 162.210938 162.757812 161.980469 160.691406 C 161.742188 158.628906 161.777344 156.515625 162.253906 154.429688 " fill-opacity="1" fill-rule="nonzero"/><g fill="#ffffff" fill-opacity="1"><g transform="translate(86.968871, 265.967956)"><g><path d="M 19.257812 0.574219 C 23.90625 0.574219 27.320312 -0.699219 30.324219 -2.511719 L 27.363281 -8.804688 C 24.523438 -7.160156 21.847656 -6.625 19.257812 -6.625 C 13.703125 -6.625 9.421875 -10.65625 9.421875 -16.621094 L 9.421875 -16.703125 C 9.421875 -23.042969 13.703125 -26.785156 19.257812 -26.785156 C 21.847656 -26.785156 24.523438 -26.210938 27.363281 -24.5625 L 30.324219 -30.859375 C 27.277344 -32.710938 23.78125 -33.945312 19.257812 -33.945312 C 8.640625 -33.945312 1.605469 -27.03125 1.605469 -16.703125 L 1.605469 -16.621094 C 1.605469 -6.296875 8.679688 0.574219 19.257812 0.574219 Z M 19.257812 0.574219 "/></g></g></g><g clip-path="url(#f842b22d51)"><path fill="#808080" d="M 139.011719 268 C 129.078125 268 121.015625 259.929688 121.015625 249.988281 C 121.015625 245.039062 123.023438 240.558594 126.257812 237.304688 L 126.273438 237.320312 C 126.929688 236.414062 127.984375 235.824219 129.183594 235.824219 C 131.171875 235.824219 132.785156 237.4375 132.785156 239.425781 C 132.785156 240.644531 132.175781 241.71875 131.25 242.371094 L 131.261719 242.382812 C 129.316406 244.34375 128.101562 247.019531 128.101562 249.988281 C 128.101562 255.984375 132.984375 260.847656 139.003906 260.847656 C 145.019531 260.847656 149.902344 255.984375 149.902344 249.988281 C 149.902344 247.277344 148.882812 244.816406 147.226562 242.917969 C 146.242188 242.277344 145.585938 241.167969 145.585938 239.90625 C 145.585938 237.917969 147.199219 236.300781 149.1875 236.300781 C 150.160156 236.300781 151.035156 236.691406 151.683594 237.320312 L 151.734375 237.269531 C 154.988281 240.527344 157.007812 245.019531 157.007812 249.988281 C 157.007812 259.929688 148.945312 268 139.011719 268 Z M 139.011719 250.113281 C 137.015625 250.113281 135.410156 248.480469 135.410156 246.445312 L 135.410156 231.917969 C 135.410156 229.886719 137.015625 228.25 139.011719 228.25 C 141.003906 228.25 142.609375 229.886719 142.609375 231.917969 L 142.609375 246.445312 C 142.609375 248.480469 141.003906 250.113281 139.011719 250.113281 Z M 139.011719 250.113281 " fill-opacity="1" fill-rule="evenodd"/></g><g fill="#ffffff" fill-opacity="1"><g transform="translate(164.828076, 283.547054)"><g><path d="M 1.691406 0 C 3.316406 0.015625 4.546875 0.0703125 5.777344 0.0703125 C 8.992188 0.0703125 10.699219 -1.382812 10.699219 -3.519531 C 10.699219 -5.503906 9.164062 -6.496094 7.007812 -6.667969 C 8.71875 -6.855469 9.691406 -7.828125 9.691406 -9.382812 C 9.691406 -10.855469 8.410156 -12.050781 5.761719 -12.050781 C 4.804688 -12.050781 3.300781 -11.984375 1.691406 -11.964844 C 1.453125 -11.964844 1.058594 -12 0.855469 -12 C 0.820312 -12 0.699219 -11.640625 1.09375 -11.554688 C 1.742188 -11.417969 2 -11.316406 2 -10.359375 L 2 -1.605469 C 2 -0.648438 1.742188 -0.546875 1.09375 -0.410156 C 0.699219 -0.324219 0.835938 0.0351562 0.855469 0.0351562 C 1.058594 0.0351562 1.453125 0 1.691406 0 Z M 4.480469 -6.769531 C 4.203125 -6.699219 4.324219 -6.339844 4.410156 -6.339844 L 5.519531 -6.308594 C 7.828125 -6.257812 8.785156 -5.300781 8.785156 -3.382812 C 8.785156 -1.4375 7.453125 -0.425781 5.539062 -0.425781 L 4.308594 -0.425781 C 3.710938 -0.425781 3.640625 -0.582031 3.640625 -1.230469 L 3.640625 -10.785156 C 3.640625 -11.382812 3.691406 -11.554688 4.222656 -11.554688 L 5.539062 -11.519531 C 6.941406 -11.488281 7.914062 -10.683594 7.914062 -9.179688 C 7.914062 -7.691406 7.332031 -7.042969 5.554688 -6.855469 Z M 4.480469 -6.769531 "/></g></g></g><g fill="#ffffff" fill-opacity="1"><g transform="translate(176.109901, 283.547054)"><g><path d="M 11.761719 -0.410156 C 11.300781 -0.546875 11.144531 -0.648438 10.769531 -1.539062 L 6.667969 -11.300781 C 6.425781 -11.898438 6.289062 -11.964844 5.574219 -11.964844 L 4.53125 -11.964844 C 4.425781 -11.964844 4.324219 -11.691406 4.617188 -11.605469 C 4.753906 -11.554688 4.820312 -11.539062 4.90625 -11.316406 L 5.042969 -10.972656 C 5.078125 -10.804688 5.058594 -10.582031 4.992188 -10.394531 L 1.300781 -1.539062 C 0.921875 -0.648438 0.769531 -0.546875 0.289062 -0.410156 C -0.015625 -0.308594 0.101562 0.0351562 0.121094 0.0351562 C 0.273438 0.0351562 0.5625 0 0.734375 0 L 1.863281 0 C 2.152344 0 2.648438 0.0351562 2.90625 0.0351562 C 2.957031 0.0351562 3.109375 -0.308594 2.597656 -0.410156 C 1.777344 -0.546875 1.453125 -0.648438 1.8125 -1.539062 L 2.460938 -3.09375 L 2.460938 -3.078125 C 2.582031 -3.265625 2.648438 -3.300781 2.871094 -3.300781 C 4.597656 -3.28125 6.203125 -3.300781 7.914062 -3.300781 C 8.152344 -3.300781 8.273438 -3.28125 8.375 -3.078125 L 9.027344 -1.539062 C 9.402344 -0.648438 9.078125 -0.546875 8.308594 -0.410156 C 7.8125 -0.308594 7.984375 0.0351562 8.015625 0.0351562 C 8.257812 0.0351562 8.71875 0 9.007812 0 L 11.332031 0 C 11.503906 0 11.777344 0.0351562 11.929688 0.0351562 C 11.949219 0.0351562 12.050781 -0.308594 11.761719 -0.410156 Z M 7.792969 -3.777344 L 3.042969 -3.777344 C 2.871094 -3.777344 2.804688 -3.898438 2.871094 -4.066406 L 5.402344 -10.152344 L 7.964844 -4.050781 C 8.015625 -3.929688 8 -3.777344 7.792969 -3.777344 Z M 7.792969 -3.777344 "/></g></g></g><g fill="#ffffff" fill-opacity="1"><g transform="translate(188.160944, 283.547054)"><g><path d="M 7.382812 -5.027344 C 7.332031 -5.195312 7.28125 -5.265625 7.109375 -5.265625 L 6.71875 -5.265625 L 6.835938 -5.300781 C 9.109375 -5.4375 10.613281 -6.617188 10.613281 -8.699219 C 10.613281 -10.835938 8.992188 -12.035156 5.777344 -12.035156 C 4.546875 -12.035156 3.316406 -11.984375 1.691406 -11.964844 C 1.453125 -11.964844 1.058594 -12 0.855469 -12 C 0.835938 -12 0.699219 -11.640625 1.09375 -11.554688 C 1.742188 -11.417969 2 -11.316406 2 -10.359375 L 2 -1.605469 C 2 -0.648438 1.742188 -0.546875 1.109375 -0.410156 C 0.699219 -0.308594 0.835938 0.0351562 0.855469 0.0351562 C 1.078125 0.0351562 1.453125 0 1.691406 0 L 3.949219 0 C 4.1875 0 4.5625 0.0351562 4.769531 0.0351562 C 4.804688 0.0351562 4.941406 -0.308594 4.53125 -0.410156 C 3.878906 -0.546875 3.640625 -0.648438 3.640625 -1.605469 L 3.640625 -10.941406 C 3.640625 -11.417969 3.777344 -11.554688 4.1875 -11.554688 L 5.453125 -11.539062 C 7.640625 -11.519531 8.769531 -10.496094 8.769531 -8.632812 C 8.769531 -6.667969 7.710938 -5.726562 5.625 -5.625 L 4.582031 -5.589844 C 4.34375 -5.574219 4.324219 -5.351562 4.460938 -5.300781 L 5.332031 -5.214844 C 6.683594 -2.511719 8.921875 -0.136719 11.058594 0.71875 C 11.503906 0.804688 11.640625 0.546875 11.691406 0.410156 C 10.257812 -0.667969 8.496094 -2.425781 7.382812 -5.027344 Z M 7.382812 -5.027344 "/></g></g></g><g fill="#ffffff" fill-opacity="1"><g transform="translate(199.904295, 283.547054)"><g><path d="M 1.691406 0 C 3.316406 0.015625 4.546875 0.0703125 5.777344 0.0703125 C 8.992188 0.0703125 10.699219 -1.382812 10.699219 -3.519531 C 10.699219 -5.503906 9.164062 -6.496094 7.007812 -6.667969 C 8.71875 -6.855469 9.691406 -7.828125 9.691406 -9.382812 C 9.691406 -10.855469 8.410156 -12.050781 5.761719 -12.050781 C 4.804688 -12.050781 3.300781 -11.984375 1.691406 -11.964844 C 1.453125 -11.964844 1.058594 -12 0.855469 -12 C 0.820312 -12 0.699219 -11.640625 1.09375 -11.554688 C 1.742188 -11.417969 2 -11.316406 2 -10.359375 L 2 -1.605469 C 2 -0.648438 1.742188 -0.546875 1.09375 -0.410156 C 0.699219 -0.324219 0.835938 0.0351562 0.855469 0.0351562 C 1.058594 0.0351562 1.453125 0 1.691406 0 Z M 4.480469 -6.769531 C 4.203125 -6.699219 4.324219 -6.339844 4.410156 -6.339844 L 5.519531 -6.308594 C 7.828125 -6.257812 8.785156 -5.300781 8.785156 -3.382812 C 8.785156 -1.4375 7.453125 -0.425781 5.539062 -0.425781 L 4.308594 -0.425781 C 3.710938 -0.425781 3.640625 -0.582031 3.640625 -1.230469 L 3.640625 -10.785156 C 3.640625 -11.382812 3.691406 -11.554688 4.222656 -11.554688 L 5.539062 -11.519531 C 6.941406 -11.488281 7.914062 -10.683594 7.914062 -9.179688 C 7.914062 -7.691406 7.332031 -7.042969 5.554688 -6.855469 Z M 4.480469 -6.769531 "/></g></g></g><g fill="#ffffff" fill-opacity="1"><g transform="translate(211.18612, 283.547054)"><g><path d="M 6.734375 0 C 8.804688 0 9.316406 0.1875 9.625 0.1875 C 9.8125 0.207031 9.949219 0.0859375 9.949219 -0.222656 C 9.929688 -1.28125 10.101562 -2.753906 10.289062 -4.050781 C 10.289062 -4.066406 9.625 -4.1875 9.539062 -3.710938 C 9.195312 -1.28125 9.027344 -0.90625 8.699219 -0.734375 C 8.273438 -0.496094 7.402344 -0.480469 4.617188 -0.480469 C 3.828125 -0.480469 3.640625 -0.496094 3.640625 -1.042969 L 3.640625 -5.640625 C 3.640625 -5.828125 3.710938 -6.101562 3.984375 -6.101562 C 4.257812 -6.101562 5.300781 -6.085938 5.914062 -6.035156 C 6.394531 -6.015625 6.445312 -5.914062 6.804688 -4.617188 C 6.890625 -4.308594 7.300781 -4.410156 7.300781 -4.410156 C 7.128906 -5.539062 7.027344 -6.972656 7.214844 -8.171875 C 7.214844 -8.171875 6.804688 -8.375 6.683594 -7.914062 C 6.425781 -6.820312 6.308594 -6.683594 5.898438 -6.648438 C 5.179688 -6.582031 4.136719 -6.582031 3.984375 -6.582031 C 3.710938 -6.582031 3.640625 -6.820312 3.640625 -7.007812 L 3.640625 -11.007812 C 3.640625 -11.316406 3.761719 -11.488281 4.050781 -11.488281 C 7.128906 -11.488281 7.964844 -11.46875 8.308594 -11.179688 C 8.597656 -10.921875 8.753906 -10.238281 9.027344 -8.289062 C 9.09375 -7.828125 9.726562 -7.914062 9.726562 -7.914062 C 9.453125 -9.726562 9.351562 -10.972656 9.382812 -11.777344 C 9.382812 -12.085938 9.265625 -12.152344 9.078125 -12.152344 C 8.753906 -12.171875 8.066406 -11.964844 6.546875 -11.964844 L 1.691406 -11.964844 C 1.453125 -11.964844 1.078125 -12 0.855469 -12 C 0.835938 -12 0.699219 -11.65625 1.109375 -11.554688 C 1.742188 -11.417969 2 -11.316406 2 -10.359375 L 2 -1.605469 C 2 -0.648438 1.742188 -0.546875 1.109375 -0.410156 C 0.699219 -0.308594 0.835938 0.0351562 0.855469 0.0351562 C 1.078125 0.0351562 1.453125 0 1.691406 0 Z M 6.734375 0 "/></g></g></g><g fill="#ffffff" fill-opacity="1"><g transform="translate(222.160263, 283.547054)"><g><path d="M 7.382812 -5.027344 C 7.332031 -5.195312 7.28125 -5.265625 7.109375 -5.265625 L 6.71875 -5.265625 L 6.835938 -5.300781 C 9.109375 -5.4375 10.613281 -6.617188 10.613281 -8.699219 C 10.613281 -10.835938 8.992188 -12.035156 5.777344 -12.035156 C 4.546875 -12.035156 3.316406 -11.984375 1.691406 -11.964844 C 1.453125 -11.964844 1.058594 -12 0.855469 -12 C 0.835938 -12 0.699219 -11.640625 1.09375 -11.554688 C 1.742188 -11.417969 2 -11.316406 2 -10.359375 L 2 -1.605469 C 2 -0.648438 1.742188 -0.546875 1.109375 -0.410156 C 0.699219 -0.308594 0.835938 0.0351562 0.855469 0.0351562 C 1.078125 0.0351562 1.453125 0 1.691406 0 L 3.949219 0 C 4.1875 0 4.5625 0.0351562 4.769531 0.0351562 C 4.804688 0.0351562 4.941406 -0.308594 4.53125 -0.410156 C 3.878906 -0.546875 3.640625 -0.648438 3.640625 -1.605469 L 3.640625 -10.941406 C 3.640625 -11.417969 3.777344 -11.554688 4.1875 -11.554688 L 5.453125 -11.539062 C 7.640625 -11.519531 8.769531 -10.496094 8.769531 -8.632812 C 8.769531 -6.667969 7.710938 -5.726562 5.625 -5.625 L 4.582031 -5.589844 C 4.34375 -5.574219 4.324219 -5.351562 4.460938 -5.300781 L 5.332031 -5.214844 C 6.683594 -2.511719 8.921875 -0.136719 11.058594 0.71875 C 11.503906 0.804688 11.640625 0.546875 11.691406 0.410156 C 10.257812 -0.667969 8.496094 -2.425781 7.382812 -5.027344 Z M 7.382812 -5.027344 "/></g></g></g><g fill="#808080" fill-opacity="1"><g transform="translate(159.095502, 265.967956)"><g><path d="M 22.464844 -8.679688 L 12.46875 -33.367188 L 2.097656 -33.367188 L 2.097656 0 L 9.792969 0 L 9.792969 -24.851562 L 19.789062 0 L 30.160156 0 L 30.160156 -33.367188 L 22.464844 -33.367188 Z M 22.464844 -8.679688 "/></g></g></g><g fill="#ffffff" fill-opacity="1"><g transform="translate(191.53048, 265.967956)"><g><path d="M 22.464844 -8.679688 L 12.46875 -33.367188 L 2.097656 -33.367188 L 2.097656 0 L 9.792969 0 L 9.792969 -24.851562 L 19.789062 0 L 30.160156 0 L 30.160156 -33.367188 L 22.464844 -33.367188 Z M 22.464844 -8.679688 "/></g></g></g><g fill="#ffffff" fill-opacity="1"><g transform="translate(225.239887, 265.967956)"><g><path d="M 24.933594 0 L 24.933594 -7.160156 L 9.792969 -7.160156 L 9.792969 -13.660156 L 23.535156 -13.660156 L 23.535156 -20.324219 L 9.792969 -20.324219 L 9.792969 -26.210938 L 24.851562 -26.210938 L 24.851562 -33.367188 L 2.097656 -33.367188 L 2.097656 0 Z M 24.933594 0 "/></g></g></g><g fill="#ffffff" fill-opacity="1"><g transform="translate(252.007576, 265.967956)"><g><path d="M 19.257812 0.574219 C 23.90625 0.574219 27.320312 -0.699219 30.324219 -2.511719 L 27.363281 -8.804688 C 24.523438 -7.160156 21.847656 -6.625 19.257812 -6.625 C 13.703125 -6.625 9.421875 -10.65625 9.421875 -16.621094 L 9.421875 -16.703125 C 9.421875 -23.042969 13.703125 -26.785156 19.257812 -26.785156 C 21.847656 -26.785156 24.523438 -26.210938 27.363281 -24.5625 L 30.324219 -30.859375 C 27.277344 -32.710938 23.78125 -33.945312 19.257812 -33.945312 C 8.640625 -33.945312 1.605469 -27.03125 1.605469 -16.703125 L 1.605469 -16.621094 C 1.605469 -6.296875 8.679688 0.574219 19.257812 0.574219 Z M 19.257812 0.574219 "/></g></g></g><g fill="#ffffff" fill-opacity="1"><g transform="translate(283.293941, 265.967956)"><g><path d="M 18.84375 0 L 18.84375 -26.210938 L 29.214844 -26.210938 L 29.214844 -33.367188 L 0.824219 -33.367188 L 0.824219 -26.210938 L 11.191406 -26.210938 L 11.191406 0 Z M 18.84375 0 "/></g></g></g></svg>