<svg width="42" height="42" viewBox="0 0 42 42" fill="none" xmlns="http://www.w3.org/2000/svg">
<path fill-rule="evenodd" clip-rule="evenodd" d="M15.75 21C15.75 21.3481 15.8883 21.6819 16.1344 21.9281C16.3806 22.1742 16.7144 22.3125 17.0625 22.3125H32.2691L26.6332 27.9457C26.3868 28.1922 26.2483 28.5265 26.2483 28.875C26.2483 29.2235 26.3868 29.5578 26.6332 29.8043C26.8797 30.0507 27.214 30.1892 27.5625 30.1892C27.911 30.1892 28.2453 30.0507 28.4917 29.8043L36.3667 21.9293C36.489 21.8073 36.586 21.6625 36.6521 21.503C36.7183 21.3436 36.7523 21.1726 36.7523 21C36.7523 20.8274 36.7183 20.6564 36.6521 20.497C36.586 20.3375 36.489 20.1927 36.3667 20.0707L28.4917 12.1957C28.2453 11.9493 27.911 11.8108 27.5625 11.8108C27.214 11.8108 26.8797 11.9493 26.6332 12.1957C26.3868 12.4422 26.2483 12.7765 26.2483 13.125C26.2483 13.4735 26.3868 13.8078 26.6332 14.0543L32.2691 19.6875H17.0625C16.7144 19.6875 16.3806 19.8258 16.1344 20.0719C15.8883 20.3181 15.75 20.6519 15.75 21ZM9.1875 39.375C8.8394 39.375 8.50556 39.2367 8.25942 38.9906C8.01328 38.7444 7.875 38.4106 7.875 38.0625V3.9375C7.875 3.5894 8.01328 3.25556 8.25942 3.00942C8.50556 2.76328 8.8394 2.625 9.1875 2.625C9.5356 2.625 9.86944 2.76328 10.1156 3.00942C10.3617 3.25556 10.5 3.5894 10.5 3.9375V38.0625C10.5 38.4106 10.3617 38.7444 10.1156 38.9906C9.86944 39.2367 9.5356 39.375 9.1875 39.375Z" fill="white"/>
</svg>
