<svg width="29" height="29" viewBox="0 0 29 29" fill="none" xmlns="http://www.w3.org/2000/svg">
<path d="M25.0834 1.79167C25.5585 1.79167 26.0142 1.98043 26.3503 2.31644C26.6863 2.65244 26.875 3.10816 26.875 3.58334V25.0834C26.875 25.5585 26.6863 26.0142 26.3503 26.3503C26.0142 26.6863 25.5585 26.875 25.0834 26.875H3.58334C3.10816 26.875 2.65244 26.6863 2.31644 26.3503C1.98043 26.0142 1.79167 25.5585 1.79167 25.0834V3.58334C1.79167 3.10816 1.98043 2.65244 2.31644 2.31644C2.65244 1.98043 3.10816 1.79167 3.58334 1.79167H25.0834ZM3.58334 0C2.63298 0 1.72154 0.377529 1.04953 1.04953C0.377529 1.72154 0 2.63298 0 3.58334L0 25.0834C0 26.0337 0.377529 26.9451 1.04953 27.6172C1.72154 28.2892 2.63298 28.6667 3.58334 28.6667H25.0834C26.0337 28.6667 26.9451 28.2892 27.6172 27.6172C28.2892 26.9451 28.6667 26.0337 28.6667 25.0834V3.58334C28.6667 2.63298 28.2892 1.72154 27.6172 1.04953C26.9451 0.377529 26.0337 0 25.0834 0L3.58334 0Z" fill="white"/>
<path d="M14.3334 7.16667C14.571 7.16667 14.7989 7.26105 14.9669 7.42906C15.1349 7.59706 15.2293 7.82492 15.2293 8.06251V13.4375H20.6043C20.8418 13.4375 21.0697 13.5319 21.2377 13.6999C21.4057 13.8679 21.5001 14.0958 21.5001 14.3333C21.5001 14.5709 21.4057 14.7988 21.2377 14.9668C21.0697 15.1348 20.8418 15.2292 20.6043 15.2292H15.2293V20.6042C15.2293 20.8418 15.1349 21.0696 14.9669 21.2376C14.7989 21.4056 14.571 21.5 14.3334 21.5C14.0958 21.5 13.868 21.4056 13.7 21.2376C13.532 21.0696 13.4376 20.8418 13.4376 20.6042V15.2292H8.06258C7.82499 15.2292 7.59713 15.1348 7.42913 14.9668C7.26113 14.7988 7.16675 14.5709 7.16675 14.3333C7.16675 14.0958 7.26113 13.8679 7.42913 13.6999C7.59713 13.5319 7.82499 13.4375 8.06258 13.4375H13.4376V8.06251C13.4376 7.82492 13.532 7.59706 13.7 7.42906C13.868 7.26105 14.0958 7.16667 14.3334 7.16667Z" fill="white"/>
</svg>
