<svg width="116" height="116" viewBox="0 0 116 116" fill="none" xmlns="http://www.w3.org/2000/svg">
<path d="M81.4997 21.6872L89.6535 13.5285C91.3533 11.8287 93.6587 10.8738 96.0625 10.8738C98.4663 10.8738 100.772 11.8287 102.472 13.5285C104.171 15.2283 105.126 17.5337 105.126 19.9375C105.126 22.3413 104.171 24.6467 102.472 26.3465L51.1463 77.6717C48.5911 80.2254 45.4399 82.1025 41.9775 83.1333L29 87L32.8667 74.0225C33.8975 70.5601 35.7746 67.4089 38.3283 64.8537L81.4997 21.6872ZM81.4997 21.6872L94.25 34.4375M87 67.6667V90.625C87 93.5092 85.8542 96.2753 83.8148 98.3148C81.7753 100.354 79.0092 101.5 76.125 101.5H25.375C22.4908 101.5 19.7247 100.354 17.6852 98.3148C15.6458 96.2753 14.5 93.5092 14.5 90.625V39.875C14.5 36.9908 15.6458 34.2247 17.6852 32.1852C19.7247 30.1458 22.4908 29 25.375 29H48.3333" stroke="white" stroke-width="5" stroke-linecap="round" stroke-linejoin="round"/>
<rect x="1.5" y="1.5" width="113" height="113" rx="8.5" stroke="white" stroke-width="3"/>
</svg>
