<svg width="116" height="116" viewBox="0 0 116 116" fill="none" xmlns="http://www.w3.org/2000/svg">
<path d="M106.333 50.75H77.3334M66.4584 30.8125C66.4584 32.9547 66.0364 35.0759 65.2167 37.055C64.3969 39.0341 63.1953 40.8324 61.6806 42.3472C60.1658 43.8619 58.3675 45.0635 56.3884 45.8833C54.4093 46.7031 52.2881 47.125 50.1459 47.125C48.0037 47.125 45.8825 46.7031 43.9034 45.8833C41.9242 45.0635 40.126 43.8619 38.6112 42.3472C37.0964 40.8324 35.8949 39.0341 35.0751 37.055C34.2553 35.0759 33.8334 32.9547 33.8334 30.8125C33.8334 26.4862 35.552 22.337 38.6112 19.2778C41.6704 16.2186 45.8195 14.5 50.1459 14.5C54.4722 14.5 58.6214 16.2186 61.6806 19.2778C64.7397 22.337 66.4584 26.4862 66.4584 30.8125ZM19.3334 92.9692V92.4375C19.3334 84.2655 22.5797 76.4282 28.3581 70.6498C34.1366 64.8713 41.9739 61.625 50.1459 61.625C58.3179 61.625 66.1551 64.8713 71.9336 70.6498C77.7121 76.4282 80.9584 84.2655 80.9584 92.4375V92.9643C71.6565 98.5666 60.9997 101.518 50.141 101.5C38.8745 101.5 28.333 98.3825 19.3334 92.9643V92.9692Z" stroke="white" stroke-width="5" stroke-linecap="round" stroke-linejoin="round"/>
<rect x="1.5" y="1.5" width="113" height="113" rx="8.5" stroke="white" stroke-width="3"/>
</svg>
