<svg width="54" height="54" viewBox="0 0 54 54" fill="none" xmlns="http://www.w3.org/2000/svg">
<path d="M6.75 19.548C6.75 17.604 8.84925 16.3867 10.5368 17.3497L26.5298 26.4892C26.9169 26.7107 27.2387 27.0306 27.4624 27.4164C27.6862 27.8022 27.8041 28.2403 27.8041 28.6864C27.8041 29.1324 27.6862 29.5705 27.4624 29.9563C27.2387 30.3422 26.9169 30.662 26.5298 30.8835L10.5368 40.023C10.1516 40.243 9.71541 40.3579 9.27185 40.3563C8.8283 40.3546 8.39297 40.2365 8.00947 40.0136C7.62596 39.7907 7.30775 39.471 7.08671 39.0865C6.86567 38.7019 6.74955 38.266 6.75 37.8225V19.548ZM28.6875 19.548C28.6875 17.604 30.7868 16.3867 32.4743 17.3497L48.4673 26.4892C48.8544 26.7107 49.1762 27.0306 49.3999 27.4164C49.6237 27.8022 49.7416 28.2403 49.7416 28.6864C49.7416 29.1324 49.6237 29.5705 49.3999 29.9563C49.1762 30.3422 48.8544 30.662 48.4673 30.8835L32.4743 40.023C32.0893 40.2429 31.6533 40.3578 31.2099 40.3563C30.7666 40.3547 30.3314 40.2368 29.9479 40.0142C29.5645 39.7916 29.2463 39.4722 29.0251 39.0879C28.8038 38.7037 28.6874 38.2681 28.6875 37.8247V19.548Z" stroke="black" stroke-width="1.5" stroke-linecap="round" stroke-linejoin="round"/>
</svg>
