<svg width="34" height="34" viewBox="0 0 34 34" fill="none" xmlns="http://www.w3.org/2000/svg">
<path d="M11.6875 11.6875C11.9693 11.6875 12.2395 11.7994 12.4388 11.9987C12.6381 12.198 12.75 12.4682 12.75 12.75V25.5C12.75 25.7818 12.6381 26.052 12.4388 26.2513C12.2395 26.4506 11.9693 26.5625 11.6875 26.5625C11.4057 26.5625 11.1355 26.4506 10.9362 26.2513C10.7369 26.052 10.625 25.7818 10.625 25.5V12.75C10.625 12.4682 10.7369 12.198 10.9362 11.9987C11.1355 11.7994 11.4057 11.6875 11.6875 11.6875ZM17 11.6875C17.2818 11.6875 17.552 11.7994 17.7513 11.9987C17.9506 12.198 18.0625 12.4682 18.0625 12.75V25.5C18.0625 25.7818 17.9506 26.052 17.7513 26.2513C17.552 26.4506 17.2818 26.5625 17 26.5625C16.7182 26.5625 16.448 26.4506 16.2487 26.2513C16.0494 26.052 15.9375 25.7818 15.9375 25.5V12.75C15.9375 12.4682 16.0494 12.198 16.2487 11.9987C16.448 11.7994 16.7182 11.6875 17 11.6875ZM23.375 12.75C23.375 12.4682 23.2631 12.198 23.0638 11.9987C22.8645 11.7994 22.5943 11.6875 22.3125 11.6875C22.0307 11.6875 21.7605 11.7994 21.5612 11.9987C21.3619 12.198 21.25 12.4682 21.25 12.75V25.5C21.25 25.7818 21.3619 26.052 21.5612 26.2513C21.7605 26.4506 22.0307 26.5625 22.3125 26.5625C22.5943 26.5625 22.8645 26.4506 23.0638 26.2513C23.2631 26.052 23.375 25.7818 23.375 25.5V12.75Z" fill="#5C5C5C"/>
<path fill-rule="evenodd" clip-rule="evenodd" d="M30.8125 6.375C30.8125 6.93859 30.5886 7.47909 30.1901 7.8776C29.7916 8.27612 29.2511 8.5 28.6875 8.5H27.625V27.625C27.625 28.7522 27.1772 29.8332 26.3802 30.6302C25.5832 31.4272 24.5022 31.875 23.375 31.875H10.625C9.49783 31.875 8.41683 31.4272 7.6198 30.6302C6.82277 29.8332 6.375 28.7522 6.375 27.625V8.5H5.3125C4.74891 8.5 4.20841 8.27612 3.8099 7.8776C3.41138 7.47909 3.1875 6.93859 3.1875 6.375V4.25C3.1875 3.68641 3.41138 3.14591 3.8099 2.7474C4.20841 2.34888 4.74891 2.125 5.3125 2.125H12.75C12.75 1.56141 12.9739 1.02091 13.3724 0.622398C13.7709 0.223883 14.3114 0 14.875 0L19.125 0C19.6886 0 20.2291 0.223883 20.6276 0.622398C21.0261 1.02091 21.25 1.56141 21.25 2.125H28.6875C29.2511 2.125 29.7916 2.34888 30.1901 2.7474C30.5886 3.14591 30.8125 3.68641 30.8125 4.25V6.375ZM8.75075 8.5L8.5 8.62538V27.625C8.5 28.1886 8.72388 28.7291 9.1224 29.1276C9.52091 29.5261 10.0614 29.75 10.625 29.75H23.375C23.9386 29.75 24.4791 29.5261 24.8776 29.1276C25.2761 28.7291 25.5 28.1886 25.5 27.625V8.62538L25.2492 8.5H8.75075ZM5.3125 6.375V4.25H28.6875V6.375H5.3125Z" fill="#5C5C5C"/>
</svg>
